<?xml version="1.0" encoding="utf-8"?>
<!-- Generator: Adobe Illustrator 17.0.0, SVG Export Plug-In . SVG Version: 6.00 Build 0)  -->
<!DOCTYPE svg PUBLIC "-//W3C//DTD SVG 1.1//EN" "http://www.w3.org/Graphics/SVG/1.1/DTD/svg11.dtd">
<svg version="1.1" id="Layer_1" xmlns="http://www.w3.org/2000/svg" xmlns:xlink="http://www.w3.org/1999/xlink" x="0px" y="0px"
	 width="44.705px" height="51.291px" viewBox="0 0 44.705 51.291" enable-background="new 0 0 44.705 51.291" xml:space="preserve">
<path fill="#FFFFFF" d="M35.325,7.487c-3.249-2.835-7.722-4.338-12.95-4.338c-5.212,0-9.676,1.512-12.934,4.374
	c-3.537,3.105-5.409,7.668-5.409,13.194c0,11.917,17.118,27.468,17.848,28.134l0.495,0.44l0.504-0.44
	c0.729-0.666,17.847-16.146,17.847-28.134C40.725,15.146,38.853,10.573,35.325,7.487"/>
<linearGradient id="SVGID_1_" gradientUnits="userSpaceOnUse" x1="-550.973" y1="463.5386" x2="-549.9729" y2="463.5386" gradientTransform="matrix(7.9563 45.1223 -45.1223 7.9563 25319.0488 21176.6211)">
	<stop  offset="0" style="stop-color:#00DAE4"/>
	<stop  offset="1" style="stop-color:#00BCC6"/>
</linearGradient>
<path fill="url(#SVGID_1_)" d="M22.374,47.278c-1.225-1.152-4.581-4.41-7.975-8.559h15.975
	C26.973,42.867,23.616,46.125,22.374,47.278 M7.592,28.425c-0.454-0.287-0.837-0.843-1.14-1.73C3.825,19,5.66,10.756,12.942,6.489
	c2.648-1.548,5.908-2.293,9.181-2.293c4.525,0,9.073,1.425,12.051,4.12c0.765,0.692,1.185,1.292,1.324,1.827h0.314
	c1.548,1.836,2.655,4.203,3.141,7.164H23.047c-0.322,0.179-0.64,0.365-0.952,0.558c-2.737,1.697-5.358,4.335-7.671,6.579h24.267
	c-0.639,2.349-1.8,4.779-3.23,7.155H9.315C8.682,30.548,8.1,29.486,7.592,28.425 M22.374,3.151c-5.212,0-9.676,1.512-12.934,4.374
	c-3.537,3.105-5.409,7.668-5.409,13.194c0,0.281,0.01,0.562,0.028,0.847c0.77,11.784,17.108,26.636,17.82,27.278l0.495,0.449
	l0.504-0.449c0.712-0.642,17.056-15.422,17.819-27.279c0.018-0.284,0.027-0.566,0.027-0.846c0-5.571-1.872-10.143-5.4-13.239
	C32.075,4.654,27.603,3.151,22.374,3.151"/>
<path fill="#FFFFFF" d="M14.424,24.445h-8.35c0.356,1.31,0.878,2.644,1.517,3.98c0.261,0.165,0.545,0.242,0.851,0.242
	C9.967,28.667,12.031,26.767,14.424,24.445 M35.497,10.144H8.946c-1.529,1.836-2.654,4.203-3.141,7.164h17.242
	C28.962,14.016,36.24,12.998,35.497,10.144"/>
<linearGradient id="SVGID_2_" gradientUnits="userSpaceOnUse" x1="-550.973" y1="463.5645" x2="-549.973" y2="463.5645" gradientTransform="matrix(7.9563 45.1223 -45.1223 7.9563 25319.0488 21176.6211)">
	<stop  offset="0" style="stop-color:#4AE5EC"/>
	<stop  offset="1" style="stop-color:#4ACFD7"/>
</linearGradient>
<path fill="url(#SVGID_2_)" d="M22.122,4.197c-3.272,0-6.533,0.745-9.181,2.293C5.66,10.756,3.825,19,6.452,26.695
	c0.303,0.888,0.686,1.443,1.14,1.73c-0.64-1.337-1.161-2.671-1.517-3.98h8.35c2.312-2.244,4.934-4.882,7.671-6.579
	c0.312-0.193,0.63-0.379,0.952-0.558H5.805c0.486-2.961,1.611-5.328,3.141-7.164h26.552c-0.139-0.536-0.56-1.135-1.324-1.827
	C31.196,5.621,26.648,4.197,22.122,4.197"/>
</svg>
