<?xml version="1.0" encoding="utf-8"?>
<!-- Generator: Adobe Illustrator 19.1.0, SVG Export Plug-In . SVG Version: 6.00 Build 0)  -->
<svg version="1.1" id="Layer_1" xmlns="http://www.w3.org/2000/svg" xmlns:xlink="http://www.w3.org/1999/xlink" x="0px" y="0px"
	 viewBox="0 0 162.677 162.677" enable-background="new 0 0 162.677 162.677" xml:space="preserve" preserveAspectRatio="none">
<g>
	<g>
		<circle fill="#0095C4" cx="-428.905" cy="-154.661" r="80.633"/>
	</g>
	<path fill="#0087AD" d="M-457.741-173.331l28.836-10.265l37.618-3.348l43.015,32.282c0,0,1.664,65.418-70.893,80.047
		c-32.38-26.552-45.553-38.877-45.553-38.877L-457.741-173.331z"/>
	<path fill="#D60B51" d="M-404.138-143.561h-28.397l7.573-7.573h20.825V-143.561z M-449.574-143.561v-9.572l26.05-26.05
		c0.757-0.757,1.931-0.757,2.688,0l6.702,6.702c0.757,0.757,0.757,1.931,0,2.688l-26.088,26.232H-449.574z M-396.566-188.997
		h-60.581c-4.165,0-7.535,3.188-7.535,7.352l-0.038,68.154l15.145-14.925h53.008c4.165,0,7.573-3.628,7.573-7.793v-45.436
		C-388.993-185.81-392.401-188.997-396.566-188.997z"/>
</g>
<g>
	<g>
		<circle fill="#0095C4" cx="-181.663" cy="-154.661" r="80.633"/>
	</g>
	<path fill="#0087AD" d="M-210.499-172.745l28.836-10.265l37.618-3.348l43.015,32.282c0,0,1.664,65.418-70.893,80.047
		c-32.38-26.552-45.554-38.877-45.554-38.877L-210.499-172.745z"/>
	<g>
		<path fill="#2D2E95" d="M-189.555-171.638c1.263,0,2.283,1.107,2.283,2.479c0,1.372-1.02,2.844-2.283,2.844
			c-1.263-0.365-2.283-1.473-2.283-2.844C-191.838-170.531-190.818-171.638-189.555-171.638z"/>
		<path fill="#2D2E95" d="M-217.416-181.834v67.955l15.101-15.101h52.854c4.153,0,7.551-3.398,7.551-7.551v-45.304
			c0-4.153-3.398-7.551-7.551-7.551h-60.405C-214.018-189.384-217.378-185.987-217.416-181.834z M-194.882-171.638
			c0-1.819,1.37-2.941,3.044-2.941h10.653c0.837,0,1.598-0.002,2.146,0.593l13.834,15.109c0.411,0.362,0.761,1.205,0.761,2.114
			c0,0.909-0.335,1.736-0.898,2.331l-10.653,11.57c-0.548,0.612-1.309,0.975-2.146,0.975c-0.837,0-1.598-0.364-2.146-0.959
			l-13.697-14.876c-0.563-0.612-0.898-1.438-0.898-2.347V-171.638z"/>
	</g>
</g>
<g>
	<g>
		<circle fill="#0095C4" cx="81.339" cy="-154.661" r="80.633"/>
	</g>
	<path fill="#0087AD" d="M52.092-172.745l28.836-10.265l37.618-3.348l43.015,32.282c0,0,1.664,65.418-70.893,80.047
		c-32.38-26.552-45.554-38.877-45.554-38.877L52.092-172.745z"/>
	<path fill="#DDDB00" d="M113.173-188.388H53.504c-4.102,0-7.459,3.651-7.459,7.753v67.128l14.917-15.212h52.211
		c4.102,0,7.459-3.062,7.459-7.164v-44.752C120.632-184.737,117.276-188.388,113.173-188.388z"/>
	<path fill="#0087AD" d="M83.339-155.379l-16.52-10.762l16.52-9.68l16.52,9.68L83.339-155.379z M103.339-165.379
		c-0.02-1.882-0.76-3.142-1.9-3.842l-18.1-10.6l-18.1,10.6c-1.14,0.7-1.9,1.96-1.9,3.4v20c0,2.2,1.8,4.442,4,4.442h32
		c2.2,0,4-2.242,4-4.442V-165.379z"/>
	<path fill="#0087AD" d="M81.337-168.115c-0.393-0.114-0.71-0.458-0.71-0.885s0.317-0.771,0.71-0.771c0.393,0,0.71,0.345,0.71,0.771
		S81.73-168.115,81.337-168.115z M88.913-165.8l-4.304-4.701c-0.17-0.185-0.407-0.185-0.668-0.185h-3.315
		c-0.521,0-0.947,0.349-0.947,0.915v3.6c0,0.283,0.104,0.54,0.279,0.73l4.262,4.629c0.17,0.185,0.407,0.298,0.668,0.298
		c0.26,0,0.497-0.113,0.668-0.303l3.315-3.6c0.175-0.185,0.279-0.442,0.279-0.725C89.15-165.425,89.041-165.688,88.913-165.8z"/>
</g>
<g>
	<g>
		<circle fill="#0095C4" cx="-428.943" cy="81.339" r="80.633"/>
	</g>
	<path fill="#0087AD" d="M-456.699,62.669l28.836-10.265l35.618-6.348l44.015,35.282c0,0-0.079,67.138-69.893,80.047
		c-39.688-38.179-45.554-43.877-45.554-43.877L-456.699,62.669z"/>
	<g>
		<path fill="#FF7B00" d="M-440.165,70.393c-0.777,0-1.44,0.275-1.99,0.824c-0.55,0.55-0.825,1.213-0.825,1.99
			c0,0.777,0.275,1.441,0.825,1.99c0.55,0.55,1.213,0.825,1.99,0.825c0.777,0,1.44-0.275,1.99-0.825
			c0.55-0.549,0.825-1.213,0.825-1.99c0-0.777-0.275-1.44-0.825-1.99C-438.725,70.668-439.388,70.393-440.165,70.393z"/>
		<path fill="#FF7B00" d="M-389.725,81.334l8.902-8.708c1.289-1.202,1.719-2.709,1.289-4.514c-0.516-1.763-1.634-2.859-3.354-3.289
			l-12.126-3.098l3.418-11.997c0.517-1.761,0.107-3.267-1.226-4.514c-1.247-1.333-2.752-1.742-4.515-1.226l-11.997,3.42
			l-3.096-12.128c-0.43-1.762-1.527-2.859-3.289-3.29c-1.764-0.472-3.269-0.064-4.515,1.227l-8.708,8.966l-8.708-8.966
			c-1.248-1.333-2.753-1.742-4.515-1.227c-1.764,0.43-2.861,1.528-3.289,3.29l-3.097,12.128l-11.997-3.42
			c-1.763-0.516-3.268-0.106-4.515,1.226c-1.334,1.247-1.741,2.753-1.226,4.514l3.419,11.997l-12.127,3.098
			c-1.72,0.43-2.838,1.526-3.354,3.289c-0.43,1.805,0,3.312,1.29,4.514l8.901,8.708l-8.901,8.708c-1.29,1.204-1.72,2.709-1.29,4.516
			c0.516,1.763,1.633,2.859,3.354,3.289l12.127,3.096l-3.419,11.997c-0.516,1.763-0.108,3.269,1.226,4.514
			c1.247,1.334,2.752,1.742,4.515,1.227l11.997-3.418l3.097,12.126c0.429,1.763,1.525,2.88,3.289,3.354
			c1.806,0.429,3.31,0,4.515-1.289l8.708-8.901l8.708,8.901c0.86,0.944,1.956,1.418,3.289,1.418c0.301,0,0.709-0.043,1.226-0.129
			c1.762-0.516,2.859-1.634,3.289-3.354l3.096-12.126l11.997,3.418c1.763,0.516,3.268,0.108,4.515-1.227
			c1.333-1.246,1.742-2.751,1.226-4.514l-3.418-11.997l12.126-3.096c1.72-0.43,2.838-1.526,3.354-3.289
			c0.43-1.807,0-3.312-1.289-4.516L-389.725,81.334z M-427.499,99.486c-0.777,0-1.437-0.271-1.979-0.814l-15.723-15.745
			c-0.557-0.542-1.03-1.282-1.418-2.221c-0.388-0.938-0.583-1.796-0.583-2.573v-9.148c0-0.762,0.278-1.422,0.836-1.979
			c0.557-0.557,1.216-0.836,1.979-0.836h9.148c0.777,0,1.634,0.195,2.573,0.583c0.938,0.388,1.686,0.862,2.243,1.418l15.723,15.701
			c0.542,0.572,0.814,1.239,0.814,2.001c0,0.777-0.271,1.437-0.814,1.979l-10.797,10.819
			C-426.069,99.214-426.737,99.486-427.499,99.486z M-406.256,87.853l-10.797,10.819c-0.572,0.542-1.239,0.814-2.001,0.814
			c-0.528,0-0.96-0.103-1.297-0.308c-0.337-0.205-0.726-0.535-1.166-0.99l10.335-10.335c0.542-0.542,0.814-1.202,0.814-1.979
			c0-0.762-0.271-1.429-0.814-2.001l-15.723-15.701c-0.557-0.557-1.305-1.03-2.243-1.418c-0.938-0.388-1.796-0.583-2.573-0.583
			h4.926c0.777,0,1.634,0.195,2.573,0.583c0.938,0.388,1.686,0.862,2.243,1.418l15.723,15.701c0.542,0.572,0.813,1.239,0.813,2.001
			C-405.443,86.651-405.714,87.311-406.256,87.853z"/>
	</g>
</g>
<g>
	<g>
		<circle fill="#0095C4" cx="-181.661" cy="81.339" r="80.633"/>
	</g>
	<path fill="#0087AD" d="M-209.747,62.669l28.836-10.265l37.618-3.348l42.015,32.282c0,0,2.664,65.418-69.893,80.047
		c-38.58-39.4-49.554-49.877-49.554-49.877L-209.747,62.669z"/>
	<g>
		<path fill="#00CA33" d="M-147.465,47.692h-66.471c-5.212,0-9.437,4.225-9.437,9.437v48.229c0,5.212,4.225,9.437,9.437,9.437
			h66.471c5.212,0,9.437-4.225,9.437-9.437V57.129C-138.028,51.917-142.253,47.692-147.465,47.692z M-194.098,86.235
			c-0.889,1.524-2.095,2.729-3.619,3.619c-1.524,0.889-3.188,1.333-4.992,1.333s-3.468-0.444-4.991-1.333
			c-1.524-0.889-2.73-2.095-3.619-3.619c-0.889-1.524-1.333-3.187-1.333-4.992c0-1.804,0.445-3.468,1.333-4.991
			c0.889-1.524,2.095-2.73,3.619-3.62c1.523-0.889,3.187-1.334,4.991-1.334s3.468,0.444,4.992,1.334
			c1.523,0.889,2.73,2.096,3.619,3.62c0.889,1.523,1.334,3.187,1.334,4.991C-192.764,83.048-193.209,84.711-194.098,86.235z
			 M-180.565,90.919c-5.335,0-9.675-4.341-9.675-9.676c0-5.334,4.341-9.675,9.675-9.675c5.335,0,9.676,4.341,9.676,9.675
			C-170.89,86.578-175.231,90.919-180.565,90.919z M-158.423,90.919c-5.335,0-9.675-4.341-9.675-9.676
			c0-5.334,4.341-9.675,9.675-9.675c5.335,0,9.676,4.341,9.676,9.675C-148.747,86.578-153.088,90.919-158.423,90.919z"/>
		<path fill="#00CA33" d="M-199.174,75.145c-1.079-0.63-2.257-0.945-3.535-0.945c-1.277,0-2.456,0.315-3.535,0.945
			s-1.933,1.485-2.563,2.564c-0.63,1.08-0.945,2.258-0.945,3.535c0,1.278,0.315,2.456,0.945,3.535
			c0.63,1.08,1.484,1.934,2.563,2.564s2.257,0.945,3.535,0.945c1.277,0,2.456-0.315,3.535-0.945s1.934-1.484,2.564-2.564
			c0.63-1.079,0.945-2.257,0.945-3.535c0-1.277-0.315-2.455-0.945-3.535C-197.24,76.63-198.095,75.774-199.174,75.145z
			 M-197.49,80.168l-5.464,5.465c-0.164,0.163-0.358,0.245-0.583,0.245c-0.224,0-0.419-0.082-0.582-0.245l-3.807-3.807
			c-0.164-0.164-0.246-0.358-0.246-0.583c0-0.224,0.082-0.418,0.246-0.582l1.32-1.321c0.164-0.164,0.358-0.246,0.583-0.246
			c0.224,0,0.419,0.082,0.582,0.246l1.903,1.903l3.561-3.561c0.164-0.163,0.358-0.246,0.583-0.246c0.224,0,0.419,0.083,0.582,0.246
			l1.321,1.321c0.164,0.164,0.246,0.358,0.246,0.582C-197.244,79.81-197.326,80.005-197.49,80.168z"/>
		<path fill="#00CA33" d="M-180.565,74.365c-3.793,0-6.878,3.085-6.878,6.878c0,3.793,3.085,6.879,6.878,6.879
			c3.793,0,6.878-3.085,6.878-6.879C-173.687,77.451-176.773,74.365-180.565,74.365z"/>
		<path fill="#00CA33" d="M-158.423,74.365c-3.793,0-6.878,3.085-6.878,6.878c0,3.793,3.085,6.879,6.878,6.879
			c3.793,0,6.878-3.085,6.878-6.879C-151.544,77.451-154.63,74.365-158.423,74.365z"/>
	</g>
</g>
<g>
	<g>
		<circle fill="#0095C4" cx="81.266" cy="81.271" r="80.633"/>
	</g>
	<path fill="#0087AD" d="M52.573,63.322l28.836-10.265l34.618-5.348l46.015,34.282c0,0,1.664,65.418-70.893,80.047
		c-37.326-39.25-46.554-49.877-46.554-49.877L52.573,63.322z"/>
	<g>
		<path fill="#E30000" d="M90.056,80.965c2.209-0.454,4.054-1.341,5.535-2.657c1.481-1.316,2.221-2.583,2.221-3.804v-2.258h-6.017
			C91.795,75.519,91.215,78.427,90.056,80.965z"/>
		<path fill="#E30000" d="M64.721,72.246v2.258c0,1.222,0.74,2.488,2.221,3.804c1.481,1.316,3.325,2.203,5.535,2.657
			c-1.16-2.538-1.74-5.445-1.74-8.719H64.721z"/>
		<path fill="#E30000" d="M107.345,43.192H55.186c-6.6,0-12,5.4-12,12v52.159c0,6.6,5.4,12,12,12h52.159c6.6,0,12-5.4,12-12V55.192
			C119.345,48.592,113.945,43.192,107.345,43.192z M100.819,74.504c0,1.11-0.325,2.231-0.975,3.36
			c-0.651,1.127-1.528,2.147-2.632,3.056c-1.105,0.907-2.461,1.67-4.067,2.291c-1.606,0.617-3.293,0.967-5.064,1.045
			c-0.658,0.847-1.402,1.592-2.233,2.233c-0.595,0.533-1.007,1.1-1.234,1.703c-0.227,0.605-0.34,1.304-0.34,2.106
			c0,0.843,0.239,1.559,0.717,2.139c0.478,0.578,1.242,0.868,2.292,0.868c1.174,0,2.221,0.358,3.137,1.069
			c0.916,0.714,1.375,1.61,1.375,2.69v1.505c0,0.22-0.07,0.399-0.212,0.541c-0.141,0.142-0.321,0.212-0.54,0.212H71.489
			c-0.22,0-0.4-0.07-0.541-0.212s-0.212-0.321-0.212-0.541v-1.505c0-1.08,0.459-1.976,1.375-2.69
			c0.917-0.711,1.963-1.069,3.138-1.069c1.049,0,1.813-0.29,2.291-0.868c0.478-0.58,0.717-1.296,0.717-2.139
			c0-0.802-0.113-1.501-0.34-2.106c-0.227-0.603-0.638-1.17-1.234-1.703c-0.831-0.642-1.574-1.386-2.232-2.233
			c-1.772-0.078-3.459-0.428-5.065-1.045c-1.606-0.621-2.961-1.384-4.066-2.291c-1.105-0.909-1.982-1.929-2.632-3.056
			c-0.651-1.129-0.976-2.25-0.976-3.36v-3.011c0-0.625,0.219-1.16,0.658-1.596c0.438-0.44,0.972-0.658,1.598-0.658h6.769v-2.258
			c0-1.032,0.368-1.919,1.104-2.657c0.737-0.736,1.623-1.102,2.656-1.102h13.538c1.034,0,1.919,0.366,2.656,1.102
			c0.736,0.738,1.104,1.625,1.104,2.657v2.258h6.769c0.626,0,1.16,0.218,1.598,0.658c0.439,0.436,0.658,0.971,0.658,1.596V74.504z"
			/>
	</g>
</g>
</svg>
