<?xml version="1.0" encoding="utf-8"?>
<!-- Generator: Adobe Illustrator 19.1.0, SVG Export Plug-In . SVG Version: 6.00 Build 0)  -->
<svg version="1.1" id="Layer_1" xmlns="http://www.w3.org/2000/svg" xmlns:xlink="http://www.w3.org/1999/xlink" x="0px" y="0px"
	 viewBox="0 0 162.677 162.677" enable-background="new 0 0 162.677 162.677" xml:space="preserve">
<g>
	<g>
		<circle fill="#0095C4" cx="81.337" cy="81.339" r="80.633"/>
	</g>
	<path fill="#0087AD" d="M52.501,62.669l28.836-10.265l37.618-3.348l43.015,32.282c0,0,1.664,65.418-70.893,80.047
		c-32.38-26.552-45.554-38.877-45.554-38.877L52.501,62.669z"/>
	<path fill="#D60B51" d="M106.104,92.439H77.706l7.573-7.573h20.825V92.439z M60.668,92.439v-9.572l26.05-26.05
		c0.757-0.757,1.931-0.757,2.688,0l6.702,6.702c0.757,0.757,0.757,1.931,0,2.688L70.02,92.439H60.668z M113.676,47.003H53.095
		c-4.165,0-7.535,3.188-7.535,7.352l-0.038,68.154l15.145-14.925h53.008c4.165,0,7.573-3.628,7.573-7.793V54.355
		C121.249,50.19,117.841,47.003,113.676,47.003z"/>
</g>
</svg>
