<?xml version="1.0" encoding="utf-8"?>
<!-- Generator: Adobe Illustrator 19.1.0, SVG Export Plug-In . SVG Version: 6.00 Build 0)  -->
<svg version="1.1" id="Layer_1" xmlns="http://www.w3.org/2000/svg" xmlns:xlink="http://www.w3.org/1999/xlink" x="0px" y="0px"
	 viewBox="0 0 269.001 567.116" enable-background="new 0 0 269.001 567.116" xml:space="preserve">
<g>
	<g>
		<circle fill="#0095C4" cx="80.633" cy="-427.012" r="80.633"/>
	</g>
	<path fill="#0087AD" d="M51.797-445.682l28.836-10.265l37.618-3.348l43.015,32.282c0,0,1.664,65.418-70.893,80.047
		c-32.38-26.552-45.554-38.877-45.554-38.877L51.797-445.682z"/>
	<path fill="#D60B51" d="M105.399-415.912H77.002l7.573-7.573h20.825V-415.912z M59.964-415.912v-9.572l26.05-26.05
		c0.757-0.757,1.931-0.757,2.688,0l6.702,6.702c0.757,0.757,0.757,1.931,0,2.688l-26.088,26.232H59.964z M112.972-461.348H52.391
		c-4.165,0-7.535,3.188-7.535,7.353l-0.038,68.154l15.145-14.925h53.008c4.165,0,7.573-3.628,7.573-7.793v-45.436
		C120.545-458.161,117.137-461.348,112.972-461.348z"/>
</g>
<g>
	<g>
		<circle fill="#0095C4" cx="327.875" cy="-427.012" r="80.633"/>
	</g>
	<path fill="#0087AD" d="M299.039-445.096l28.836-10.265l37.618-3.348l43.015,32.282c0,0,1.664,65.418-70.893,80.047
		c-32.38-26.552-45.553-38.877-45.553-38.877L299.039-445.096z"/>
	<g>
		<path fill="#2D2E95" d="M319.982-443.989c1.263,0,2.283,1.107,2.283,2.479c0,1.372-1.02,2.844-2.283,2.844
			c-1.263-0.365-2.283-1.473-2.283-2.844C317.7-442.882,318.719-443.989,319.982-443.989z"/>
		<path fill="#2D2E95" d="M292.122-454.185v67.955l15.101-15.101h52.854c4.153,0,7.551-3.398,7.551-7.551v-45.304
			c0-4.153-3.398-7.551-7.551-7.551h-60.405C295.519-461.735,292.159-458.338,292.122-454.185z M314.656-443.989
			c0-1.819,1.37-2.941,3.044-2.941h10.653c0.837,0,1.598-0.002,2.146,0.593l13.834,15.109c0.411,0.362,0.761,1.205,0.761,2.114
			c0,0.909-0.335,1.736-0.898,2.331l-10.653,11.57c-0.548,0.612-1.309,0.975-2.146,0.975c-0.837,0-1.598-0.364-2.146-0.959
			l-13.697-14.876c-0.563-0.612-0.898-1.438-0.898-2.347V-443.989z"/>
	</g>
</g>
<g>
	<g>
		<circle fill="#0095C4" cx="590.876" cy="-427.012" r="80.633"/>
	</g>
	<path fill="#0087AD" d="M561.63-445.096l28.836-10.265l37.618-3.348l43.015,32.282c0,0,1.664,65.418-70.893,80.047
		c-32.38-26.552-45.554-38.877-45.554-38.877L561.63-445.096z"/>
	<path fill="#DDDB00" d="M622.711-460.739h-59.669c-4.102,0-7.459,3.651-7.459,7.753v67.128L570.5-401.07h52.211
		c4.102,0,7.459-3.062,7.459-7.164v-44.752C630.169-457.088,626.813-460.739,622.711-460.739z"/>
	<path fill="#0087AD" d="M592.876-427.73l-16.52-10.762l16.52-9.68l16.52,9.68L592.876-427.73z M612.876-437.73
		c-0.02-1.882-0.76-3.142-1.9-3.842l-18.1-10.6l-18.1,10.6c-1.14,0.7-1.9,1.96-1.9,3.4v20c0,2.2,1.8,4.442,4,4.442h32
		c2.2,0,4-2.242,4-4.442V-437.73z"/>
	<path fill="#0087AD" d="M590.875-440.465c-0.393-0.114-0.71-0.458-0.71-0.885c0-0.427,0.317-0.771,0.71-0.771
		c0.393,0,0.71,0.345,0.71,0.771C591.585-440.924,591.268-440.465,590.875-440.465z M598.451-438.151l-4.304-4.701
		c-0.17-0.185-0.407-0.185-0.668-0.185h-3.315c-0.521,0-0.947,0.349-0.947,0.915v3.6c0,0.283,0.104,0.54,0.279,0.73l4.262,4.629
		c0.17,0.185,0.407,0.298,0.668,0.298s0.497-0.113,0.668-0.303l3.315-3.6c0.175-0.185,0.279-0.442,0.279-0.725
		C598.688-437.776,598.579-438.039,598.451-438.151z"/>
</g>
<g>
	<g>
		<circle fill="#0095C4" cx="80.595" cy="-191.012" r="80.633"/>
	</g>
	<path fill="#0087AD" d="M52.838-209.682l28.836-10.265l35.618-6.348l44.015,35.282c0,0-0.079,67.138-69.893,80.047
		c-39.688-38.179-45.554-43.877-45.554-43.877L52.838-209.682z"/>
	<g>
		<path fill="#FF7B00" d="M69.373-201.958c-0.777,0-1.44,0.275-1.99,0.824c-0.55,0.55-0.825,1.213-0.825,1.99
			c0,0.777,0.275,1.441,0.825,1.99c0.55,0.55,1.213,0.825,1.99,0.825c0.777,0,1.44-0.275,1.99-0.825
			c0.55-0.549,0.825-1.213,0.825-1.99c0-0.777-0.275-1.44-0.825-1.99C70.813-201.683,70.15-201.958,69.373-201.958z"/>
		<path fill="#FF7B00" d="M119.812-191.017l8.902-8.708c1.289-1.202,1.719-2.709,1.289-4.514c-0.516-1.763-1.634-2.859-3.354-3.289
			l-12.126-3.098l3.418-11.997c0.517-1.761,0.107-3.267-1.226-4.514c-1.247-1.333-2.752-1.742-4.515-1.226l-11.997,3.42
			l-3.096-12.128c-0.43-1.762-1.527-2.859-3.289-3.29c-1.764-0.472-3.269-0.064-4.515,1.227l-8.708,8.966l-8.708-8.966
			c-1.248-1.333-2.753-1.742-4.515-1.227c-1.764,0.43-2.861,1.528-3.289,3.29l-3.097,12.128l-11.997-3.42
			c-1.763-0.516-3.268-0.106-4.515,1.226c-1.334,1.247-1.741,2.753-1.226,4.514l3.419,11.997l-12.127,3.098
			c-1.72,0.43-2.838,1.526-3.354,3.289c-0.43,1.805,0,3.312,1.29,4.514l8.901,8.708l-8.901,8.708c-1.29,1.204-1.72,2.709-1.29,4.516
			c0.516,1.763,1.633,2.859,3.354,3.289l12.127,3.096l-3.419,11.997c-0.516,1.763-0.108,3.269,1.226,4.514
			c1.247,1.334,2.752,1.742,4.515,1.227l11.997-3.418l3.097,12.126c0.429,1.763,1.525,2.88,3.289,3.354
			c1.806,0.429,3.31,0,4.515-1.289l8.708-8.901l8.708,8.901c0.86,0.944,1.956,1.418,3.289,1.418c0.301,0,0.709-0.043,1.226-0.129
			c1.762-0.516,2.859-1.634,3.289-3.354l3.096-12.126l11.997,3.418c1.763,0.516,3.268,0.108,4.515-1.227
			c1.333-1.246,1.742-2.751,1.226-4.514l-3.418-11.997l12.126-3.096c1.72-0.43,2.838-1.526,3.354-3.289
			c0.43-1.807,0-3.312-1.289-4.516L119.812-191.017z M82.039-172.865c-0.777,0-1.437-0.271-1.979-0.814l-15.723-15.745
			c-0.557-0.542-1.03-1.282-1.418-2.221c-0.388-0.938-0.583-1.796-0.583-2.573v-9.148c0-0.762,0.278-1.422,0.836-1.979
			c0.557-0.557,1.216-0.836,1.979-0.836h9.148c0.777,0,1.634,0.195,2.573,0.583c0.938,0.388,1.686,0.862,2.243,1.418l15.723,15.701
			c0.542,0.572,0.814,1.239,0.814,2.001c0,0.777-0.271,1.437-0.814,1.979L84.04-173.679
			C83.468-173.137,82.801-172.865,82.039-172.865z M103.281-184.498l-10.797,10.819c-0.572,0.542-1.239,0.814-2.001,0.814
			c-0.528,0-0.96-0.103-1.297-0.308c-0.337-0.205-0.726-0.535-1.166-0.99l10.335-10.335c0.542-0.542,0.814-1.202,0.814-1.979
			c0-0.762-0.271-1.429-0.814-2.001l-15.723-15.701c-0.557-0.557-1.305-1.03-2.243-1.418c-0.938-0.388-1.796-0.583-2.573-0.583
			h4.926c0.777,0,1.634,0.195,2.573,0.583c0.938,0.388,1.686,0.862,2.243,1.418l15.723,15.701c0.542,0.572,0.813,1.239,0.813,2.001
			C104.095-185.7,103.823-185.04,103.281-184.498z"/>
	</g>
</g>
<g>
	<g>
		<circle fill="#0095C4" cx="327.876" cy="-191.012" r="80.633"/>
	</g>
	<path fill="#0087AD" d="M299.79-209.682l28.836-10.265l37.618-3.348l42.015,32.282c0,0,2.664,65.418-69.893,80.047
		c-38.58-39.4-49.554-49.877-49.554-49.877L299.79-209.682z"/>
	<g>
		<path fill="#00CA33" d="M362.073-224.659h-66.471c-5.212,0-9.437,4.225-9.437,9.437v48.229c0,5.212,4.225,9.437,9.437,9.437
			h66.471c5.212,0,9.437-4.225,9.437-9.437v-48.229C371.51-220.434,367.285-224.659,362.073-224.659z M315.44-186.116
			c-0.889,1.524-2.095,2.729-3.619,3.619c-1.524,0.889-3.188,1.333-4.992,1.333s-3.468-0.444-4.991-1.333
			c-1.524-0.889-2.73-2.095-3.619-3.619c-0.889-1.524-1.333-3.187-1.333-4.992c0-1.804,0.445-3.468,1.333-4.991
			c0.889-1.524,2.095-2.73,3.619-3.62c1.523-0.889,3.187-1.334,4.991-1.334s3.468,0.444,4.992,1.334
			c1.523,0.889,2.73,2.096,3.619,3.62c0.889,1.523,1.334,3.187,1.334,4.991C316.774-189.303,316.329-187.639,315.44-186.116z
			 M328.972-181.432c-5.335,0-9.675-4.341-9.675-9.676c0-5.334,4.341-9.675,9.675-9.675c5.335,0,9.676,4.341,9.676,9.675
			C338.648-185.773,334.307-181.432,328.972-181.432z M351.115-181.432c-5.335,0-9.675-4.341-9.675-9.676
			c0-5.334,4.341-9.675,9.675-9.675c5.335,0,9.676,4.341,9.676,9.675C360.79-185.773,356.45-181.432,351.115-181.432z"/>
		<path fill="#00CA33" d="M310.364-197.206c-1.079-0.63-2.257-0.945-3.535-0.945c-1.277,0-2.456,0.315-3.535,0.945
			s-1.933,1.485-2.563,2.564c-0.63,1.08-0.945,2.258-0.945,3.535c0,1.278,0.315,2.456,0.945,3.535
			c0.63,1.08,1.484,1.934,2.563,2.564s2.257,0.945,3.535,0.945c1.277,0,2.456-0.315,3.535-0.945s1.934-1.484,2.564-2.564
			c0.63-1.079,0.945-2.257,0.945-3.535c0-1.277-0.315-2.455-0.945-3.535C312.298-195.721,311.443-196.576,310.364-197.206z
			 M312.047-192.183l-5.464,5.465c-0.164,0.163-0.358,0.245-0.583,0.245c-0.224,0-0.419-0.082-0.582-0.245l-3.807-3.807
			c-0.164-0.164-0.246-0.358-0.246-0.583c0-0.224,0.082-0.418,0.246-0.582l1.32-1.321c0.164-0.164,0.358-0.246,0.583-0.246
			c0.224,0,0.419,0.082,0.582,0.246l1.903,1.903l3.561-3.561c0.164-0.163,0.358-0.246,0.583-0.246c0.224,0,0.419,0.083,0.582,0.246
			l1.321,1.321c0.164,0.164,0.246,0.358,0.246,0.582C312.293-192.541,312.211-192.346,312.047-192.183z"/>
		<path fill="#00CA33" d="M328.972-197.986c-3.793,0-6.878,3.085-6.878,6.878c0,3.793,3.085,6.879,6.878,6.879
			c3.793,0,6.878-3.085,6.878-6.879C335.85-194.9,332.765-197.986,328.972-197.986z"/>
		<path fill="#00CA33" d="M351.115-197.986c-3.793,0-6.878,3.085-6.878,6.878c0,3.793,3.085,6.879,6.878,6.879
			c3.793,0,6.878-3.085,6.878-6.879C357.993-194.9,354.908-197.986,351.115-197.986z"/>
	</g>
</g>
<g>
	<g>
		<circle fill="#0095C4" cx="590.803" cy="-191.08" r="80.633"/>
	</g>
	<path fill="#0087AD" d="M562.11-209.029l28.836-10.265l34.618-5.348l46.015,34.282c0,0,1.664,65.418-70.893,80.047
		c-37.326-39.251-46.554-49.877-46.554-49.877L562.11-209.029z"/>
	<g>
		<path fill="#E30000" d="M599.593-191.386c2.209-0.454,4.054-1.341,5.535-2.657c1.481-1.316,2.221-2.583,2.221-3.804v-2.258h-6.017
			C601.332-196.832,600.752-193.924,599.593-191.386z"/>
		<path fill="#E30000" d="M574.258-200.105v2.258c0,1.222,0.74,2.488,2.221,3.804c1.481,1.316,3.325,2.203,5.535,2.657
			c-1.16-2.538-1.74-5.445-1.74-8.719H574.258z"/>
		<path fill="#E30000" d="M616.883-229.159h-52.159c-6.6,0-12,5.4-12,12V-165c0,6.6,5.4,12,12,12h52.159c6.6,0,12-5.4,12-12v-52.159
			C628.883-223.759,623.483-229.159,616.883-229.159z M610.357-197.847c0,1.11-0.325,2.231-0.975,3.36
			c-0.651,1.127-1.528,2.147-2.632,3.056c-1.105,0.907-2.461,1.67-4.067,2.291c-1.606,0.617-3.293,0.967-5.064,1.045
			c-0.658,0.847-1.402,1.592-2.233,2.233c-0.595,0.533-1.007,1.1-1.234,1.703c-0.227,0.605-0.34,1.304-0.34,2.106
			c0,0.843,0.239,1.559,0.717,2.139c0.478,0.578,1.242,0.868,2.292,0.868c1.174,0,2.221,0.358,3.137,1.069
			c0.916,0.714,1.375,1.61,1.375,2.69v1.505c0,0.22-0.07,0.399-0.212,0.541c-0.141,0.142-0.321,0.212-0.54,0.212h-19.554
			c-0.22,0-0.4-0.07-0.541-0.212s-0.212-0.321-0.212-0.541v-1.505c0-1.08,0.459-1.976,1.375-2.69
			c0.917-0.711,1.963-1.069,3.138-1.069c1.049,0,1.813-0.29,2.291-0.868c0.478-0.58,0.717-1.296,0.717-2.139
			c0-0.802-0.113-1.501-0.34-2.106c-0.227-0.603-0.638-1.17-1.234-1.703c-0.831-0.642-1.574-1.386-2.232-2.233
			c-1.772-0.078-3.459-0.428-5.065-1.045c-1.606-0.621-2.961-1.384-4.066-2.291c-1.105-0.909-1.982-1.929-2.632-3.056
			c-0.651-1.129-0.976-2.25-0.976-3.36v-3.011c0-0.625,0.219-1.16,0.658-1.596c0.438-0.44,0.972-0.658,1.598-0.658h6.769v-2.258
			c0-1.032,0.368-1.919,1.104-2.657c0.737-0.736,1.623-1.102,2.656-1.102h13.538c1.034,0,1.919,0.366,2.656,1.102
			c0.736,0.738,1.104,1.625,1.104,2.657v2.258h6.769c0.626,0,1.16,0.218,1.598,0.658c0.439,0.436,0.658,0.971,0.658,1.596V-197.847z
			"/>
	</g>
</g>
<g>
	<path fill="#29235C" d="M233.327,1c19.119,0,34.674,15.555,34.674,34.674v495.767c0,19.12-15.555,34.675-34.674,34.675H35.674
		C16.555,566.117,1,550.561,1,531.442V35.674C1,16.555,16.555,1,35.674,1H233.327 M134.868,32.968c2.201,0,4.26-0.973,5.649-2.669
		c1.075-1.313,1.644-2.912,1.644-4.624c0-4.021-3.271-7.292-7.292-7.292c-4.021,0-7.293,3.271-7.293,7.292
		c0,1.712,0.568,3.311,1.644,4.624C130.608,31.995,132.667,32.968,134.868,32.968 M98.448,52.263c3.154,0,5.719-2.566,5.719-5.72
		c0-3.153-2.566-5.719-5.719-5.719c-3.154,0-5.719,2.565-5.719,5.719C92.728,49.698,95.294,52.263,98.448,52.263 M113.895,50.69
		h41.946c2.286,0,4.147-1.86,4.147-4.146c0-2.286-1.86-4.147-4.147-4.147h-41.946c-2.286,0-4.146,1.86-4.146,4.147
		C109.749,48.831,111.609,50.69,113.895,50.69 M15.953,493.206h1h235.096h1v-1V74.91v-1h-1H16.953h-1v1v417.296V493.206 M233.327,0
		H35.674C16.053,0,0,16.053,0,35.674v495.767c0,19.621,16.053,35.675,35.674,35.675h197.653c19.621,0,35.674-16.053,35.674-35.675
		V35.674C269.001,16.053,252.948,0,233.327,0L233.327,0z M134.868,31.968c-1.961,0-3.719-0.89-4.876-2.302
		c-0.884-1.08-1.417-2.463-1.417-3.99c0-3.462,2.833-6.292,6.293-6.292c3.46,0,6.292,2.83,6.292,6.292
		c0,1.527-0.533,2.911-1.417,3.99C138.587,31.077,136.829,31.968,134.868,31.968L134.868,31.968z M98.448,51.263
		c-2.594,0-4.719-2.076-4.719-4.72c0-2.597,2.125-4.719,4.719-4.719c2.595,0,4.719,2.122,4.719,4.719
		C103.167,49.187,101.043,51.263,98.448,51.263L98.448,51.263z M113.895,49.69c-1.739,0-3.146-1.407-3.146-3.146
		c0-1.739,1.407-3.147,3.146-3.147h41.946c1.746,0,3.147,1.407,3.147,3.147c0,1.739-1.401,3.146-3.147,3.146H113.895L113.895,49.69z
		 M16.953,492.206V74.91h235.096v417.296H16.953L16.953,492.206z"/>
</g>
<g>
	<path fill="#29235C" d="M134.871,505.661c13.117,0,23.789,10.674,23.789,23.795c0,0.573-0.027,1.193-0.083,1.895
		c-0.974,12.243-11.387,21.833-23.706,21.833c-12.328,0-22.744-9.59-23.713-21.832c-0.056-0.702-0.083-1.323-0.083-1.896
		C111.076,516.336,121.75,505.661,134.871,505.661 M134.871,504.661c-13.722,0-24.795,11.073-24.795,24.795
		c0,0.666,0.034,1.323,0.086,1.974c1.007,12.73,11.657,22.753,24.71,22.753c12.988,0,23.69-10.023,24.703-22.753
		c0.052-0.652,0.086-1.309,0.086-1.974C159.66,515.735,148.525,504.661,134.871,504.661L134.871,504.661z"/>
</g>
</svg>
